<?xml version="1.0" encoding="UTF-8"?>
<svg version="1.1" xmlns="http://www.w3.org/2000/svg" width="192" height="192">
<path d="M0 0 C1.02641602 -0.00555908 2.05283203 -0.01111816 3.11035156 -0.0168457 C8.97136298 0.03890538 14.06988409 0.62788639 19.6875 2.3125 C19.16642566 6.30740331 18.50105127 10.19208897 17.625 14.125 C15.08189267 26.7640522 17.13862135 38.23576163 23.6875 49.3125 C24.23535156 50.00601563 24.78320312 50.69953125 25.34765625 51.4140625 C26.6875 53.3125 26.6875 53.3125 26.6875 56.3125 C25.6975 56.3125 24.7075 56.3125 23.6875 56.3125 C23.6875 71.1625 23.6875 86.0125 23.6875 101.3125 C28.3075 101.3125 32.9275 101.3125 37.6875 101.3125 C37.6875 89.1025 37.6875 76.8925 37.6875 64.3125 C41.16714672 65.00842934 43.62552657 65.65783487 46.8125 66.875 C56.01215365 69.72814523 67.32470113 69.29910565 76.6875 67.3125 C79.4787242 70.1037242 78 78.36541509 78 82.11547852 C77.71680463 103.05745399 68.84674767 120.86858767 54.3515625 135.703125 C40.02617117 149.33310898 21.3587448 157.71811389 1.49584961 157.53955078 C0.62646759 157.53984283 -0.24291443 157.54013489 -1.13864136 157.54043579 C-3.97925199 157.53905529 -6.8195921 157.52355508 -9.66015625 157.5078125 C-11.64269365 157.50407781 -13.62523291 157.50123299 -15.60777283 157.49923706 C-20.80106795 157.49163651 -25.99424946 157.47201906 -31.1875 157.4498291 C-36.49672916 157.42929325 -41.80597686 157.42021885 -47.11523438 157.41015625 C-57.51437256 157.38876955 -67.9134268 157.35467721 -78.3125 157.3125 C-77.49015168 153.32257931 -75.987045 151.6358951 -73.05859375 148.765625 C-72.20458984 147.92128906 -71.35058594 147.07695312 -70.47070312 146.20703125 C-69.57287109 145.33433594 -68.67503906 144.46164063 -67.75 143.5625 C-66.84830078 142.67433594 -65.94660156 141.78617188 -65.01757812 140.87109375 C-62.78912902 138.67801685 -60.55398407 136.49223956 -58.3125 134.3125 C-58.89149048 133.55283936 -58.89149048 133.55283936 -59.48217773 132.77783203 C-67.41695326 122.29562122 -73.53954421 111.99138633 -77.3125 99.3125 C-77.67859375 98.10335937 -78.0446875 96.89421875 -78.421875 95.6484375 C-83.45189311 74.86913916 -78.09686705 53.2155387 -67.3125 35.3125 C-64.86989564 31.73853431 -62.23266926 28.50391028 -59.3125 25.3125 C-58.72210938 24.63058594 -58.13171875 23.94867188 -57.5234375 23.24609375 C-48.95476328 13.92993944 -37.21828567 7.3336594 -25.3125 3.3125 C-24.39082031 2.99410156 -23.46914062 2.67570312 -22.51953125 2.34765625 C-15.03690955 0.20270393 -7.74620944 0.03569951 0 0 Z M-7.3125 32.3125 C-7.3125 62.6725 -7.3125 93.0325 -7.3125 124.3125 C-3.0225 124.3125 1.2675 124.3125 5.6875 124.3125 C5.6875 93.9525 5.6875 63.5925 5.6875 32.3125 C1.3975 32.3125 -2.8925 32.3125 -7.3125 32.3125 Z M-39.3125 56.3125 C-39.3125 71.1625 -39.3125 86.0125 -39.3125 101.3125 C-34.6925 101.3125 -30.0725 101.3125 -25.3125 101.3125 C-25.3125 86.4625 -25.3125 71.6125 -25.3125 56.3125 C-29.9325 56.3125 -34.5525 56.3125 -39.3125 56.3125 Z " fill="#7B2CBF" transform="translate(91.3125,20.6875)"/>
<path d="M0 0 C3.61869081 2.09332338 4.74172683 5.04208858 6.42578125 8.69921875 C11.20074988 18.26953284 16.73654595 23.03511899 26.51171875 27.46875 C28.61328125 28.51171875 28.61328125 28.51171875 30.61328125 30.51171875 C30.68359375 33.39453125 30.68359375 33.39453125 29.61328125 36.51171875 C27.19279984 38.09921653 25.09923398 39.23145734 22.48828125 40.38671875 C12.84345174 45.10373172 8.10786586 50.59533083 3.65625 60.41015625 C2.61328125 62.51171875 2.61328125 62.51171875 0.61328125 64.51171875 C-1.82421875 64.44921875 -1.82421875 64.44921875 -4.38671875 63.51171875 C-5.875 61.26171875 -5.875 61.26171875 -7.38671875 58.51171875 C-13.30697559 47.77700017 -18.52380419 42.9458866 -29.91015625 38.19921875 C-32.38671875 36.51171875 -32.38671875 36.51171875 -33.23828125 33.32421875 C-33.28726563 32.39609375 -33.33625 31.46796875 -33.38671875 30.51171875 C-30.30783759 27.7407257 -27.32264681 25.9876198 -23.57421875 24.32421875 C-14.26749695 19.76074447 -9.77300039 12.1204759 -5.61328125 2.91796875 C-4.03868973 -0.17103882 -3.42059241 -0.69979386 0 0 Z " fill="#7B2BBF" transform="translate(154.38671875,12.48828125)"/>
<path d="M0 0 C0.66 0 1.32 0 2 0 C2 0.99 2 1.98 2 3 C2.99 2.67 3.98 2.34 5 2 C7.64253109 4.64253109 7.23625334 6.55563424 7.24884033 10.15074158 C7.24164978 11.01316971 7.23445923 11.87559784 7.22705078 12.76416016 C7.22734283 13.67153427 7.22763489 14.57890839 7.22793579 15.51377869 C7.22653898 18.52230286 7.21096128 21.53058142 7.1953125 24.5390625 C7.19158362 26.62128565 7.18873606 28.70351055 7.18673706 30.78573608 C7.17909077 36.27340517 7.15943375 41.76096884 7.1373291 47.24859619 C7.11689209 52.84540379 7.10773994 58.44222837 7.09765625 64.0390625 C7.07618879 75.02608805 7.04204086 86.01303527 7 97 C6.34 97 5.68 97 5 97 C5 66.64 5 36.28 5 5 C0.71 5 -3.58 5 -8 5 C-8 35.36 -8 65.72 -8 97 C-4.04 97 -0.08 97 4 97 C-0.74495749 99.37247875 -2.81262168 99.25100218 -8 99 C-8.66 98.67 -9.32 98.34 -10 98 C-10.15669794 90.0087794 -10.30475599 82.01745761 -10.4429636 74.02589798 C-10.50744562 70.31161216 -10.5744687 66.59741555 -10.64819336 62.88330078 C-10.95006729 47.57475777 -11.12960797 32.2913865 -10.65234375 16.984375 C-10.61984024 15.79789368 -10.58733673 14.61141235 -10.55384827 13.38897705 C-10.51279465 12.30896423 -10.47174103 11.22895142 -10.42944336 10.11621094 C-10.39523788 9.17163025 -10.36103241 8.22704956 -10.32579041 7.25384521 C-10 5 -10 5 -8 3 C-5.31160615 2.73008094 -2.70858064 2.91262643 0 3 C0 2.01 0 1.02 0 0 Z " fill="#713BA0" transform="translate(92,48)"/>
<path d="M0 0 C2.45862401 -0.05383848 4.9160755 -0.09359038 7.375 -0.125 C8.42300781 -0.15013672 8.42300781 -0.15013672 9.4921875 -0.17578125 C11.32897486 -0.19344267 13.16601963 -0.10303261 15 0 C17 2 17 2 17.20927429 3.9354248 C17.19008438 4.72437134 17.17089447 5.51331787 17.15112305 6.32617188 C17.13417892 7.22049927 17.1172348 8.11482666 17.09977722 9.03625488 C17.07071793 10.00397827 17.04165863 10.97170166 17.01171875 11.96875 C16.98906448 12.95999878 16.96641022 13.95124756 16.94306946 14.97253418 C16.89305622 17.07083987 16.83808268 19.16903225 16.77856445 21.26708984 C16.68788094 24.48647608 16.61315326 27.70593149 16.54101562 30.92578125 C16.4905246 32.96096107 16.43912295 34.99611854 16.38671875 37.03125 C16.36373215 37.99897339 16.34074554 38.96669678 16.31706238 39.96374512 C16.29066177 40.85807251 16.26426117 41.7523999 16.23706055 42.67382812 C16.20469551 43.85724792 16.20469551 43.85724792 16.17167664 45.0645752 C16 47 16 47 15 49 C12.52076199 49.02685095 10.0418116 49.04676547 7.5625 49.0625 C6.85544922 49.07087891 6.14839844 49.07925781 5.41992188 49.08789062 C3.61306441 49.09653588 1.80612397 49.05220011 0 49 C-1 48 -1 48 -1.12025452 46.17137146 C-1.11803391 45.37417191 -1.11581329 44.57697235 -1.11352539 43.75561523 C-1.11344986 42.85475693 -1.11337433 41.95389862 -1.11329651 41.02574158 C-1.10813522 40.04658279 -1.10297394 39.06742401 -1.09765625 38.05859375 C-1.0962413 37.06118668 -1.09482635 36.0637796 -1.09336853 35.03614807 C-1.08775114 31.83656876 -1.07519571 28.63705831 -1.0625 25.4375 C-1.05748724 23.27408955 -1.05292395 21.11067801 -1.04882812 18.94726562 C-1.03777607 13.63148675 -1.02102104 8.31574829 -1 3 C-0.67 3 -0.34 3 0 3 C0 17.52 0 32.04 0 47 C4.62 47 9.24 47 14 47 C14 32.15 14 17.3 14 2 C9.38 2 4.76 2 0 2 C0 1.34 0 0.68 0 0 Z " fill="#713BA8" transform="translate(52,75)"/>
<path d="M0 0 C0.33 0.99 0.66 1.98 1 3 C0.67 3.66 0.34 4.32 0 5 C-0.66 5 -1.32 5 -2 5 C-2 5.99 -2 6.98 -2 8 C26.05 8 54.1 8 83 8 C83 8.33 83 8.66 83 9 C53.63 9 24.26 9 -6 9 C-4.86634892 4.46539569 -3.35806626 3.09975347 0 0 Z " fill="#7243A4" transform="translate(19,169)"/>
<path d="M0 0 C5 1 5 1 7 2 C7 2.66 7 3.32 7 4 C4.525 3.505 4.525 3.505 2 3 C2.00523682 4.02472412 2.01047363 5.04944824 2.01586914 6.10522461 C2.03391969 9.89395276 2.0454322 13.68267709 2.05493164 17.47143555 C2.05997174 19.11369464 2.06680378 20.75594923 2.07543945 22.39819336 C2.08751926 24.75375479 2.09323139 27.10925709 2.09765625 29.46484375 C2.10281754 30.20339096 2.10797882 30.94193817 2.11329651 31.7028656 C2.1134925 33.46898088 2.06194719 35.23497146 2 37 C1 38 1 38 -2.16015625 38.09765625 C-3.44792969 38.08605469 -4.73570313 38.07445312 -6.0625 38.0625 C-7.35285156 38.05347656 -8.64320312 38.04445312 -9.97265625 38.03515625 C-10.97167969 38.02355469 -11.97070312 38.01195312 -13 38 C-13 37.67 -13 37.34 -13 37 C-8.71 37 -4.42 37 0 37 C0 24.79 0 12.58 0 0 Z " fill="#703C9F" transform="translate(129,85)"/>
<path d="M0 0 C0.99 0.33 1.98 0.66 3 1 C-5.4207004 12.62858627 -13.74862552 21.44355784 -26 29 C-26.66 29 -27.32 29 -28 29 C-28 28.34 -28 27.68 -28 27 C-27.34 27 -26.68 27 -26 27 C-25.75636719 26.38640625 -25.51273438 25.7728125 -25.26171875 25.140625 C-23.72970742 22.54142311 -22.52360697 22.00056225 -19.8125 20.75 C-15.27248454 18.41408882 -12.53330157 15.56859609 -9.41015625 11.57421875 C-8.94480469 11.05472656 -8.47945312 10.53523437 -8 10 C-7.34 10 -6.68 10 -6 10 C-6.33 9.01 -6.66 8.02 -7 7 C-6.01 7 -5.02 7 -4 7 C-3.34 5.68 -2.68 4.36 -2 3 C-1.34 3 -0.68 3 0 3 C0 2.01 0 1.02 0 0 Z " fill="#713AA5" transform="translate(155,140)"/>
<path d="M0 0 C0.66 0.33 1.32 0.66 2 1 C0.87936585 3.12740708 -0.24626233 5.25189819 -1.375 7.375 C-1.69210938 7.97828125 -2.00921875 8.5815625 -2.3359375 9.203125 C-3.7132062 11.78550382 -4.91830581 13.91830581 -7 16 C-9.4375 15.9375 -9.4375 15.9375 -12 15 C-14.74246068 11.41370526 -16.28910021 7.15504235 -18 3 C-17.01 3 -16.02 3 -15 3 C-15 3.99 -15 4.98 -15 6 C-14.34 6 -13.68 6 -13 6 C-12.34 7.98 -11.68 9.96 -11 12 C-10.34 12 -9.68 12 -9 12 C-8.62875 10.948125 -8.2575 9.89625 -7.875 8.8125 C-6.11188953 4.62191859 -3.62659715 2.65950458 0 0 Z " fill="#6F3AA3" transform="translate(162,61)"/>
<path d="M0 0 C0.33 0.66 0.66 1.32 1 2 C0.3125 4.0625 0.3125 4.0625 -1 7 C-1.45632812 8.06541016 -1.45632812 8.06541016 -1.921875 9.15234375 C-3.31272071 12.36733709 -4.64596207 15.44223181 -6.52734375 18.40625 C-12.64959473 29.18920663 -11.68826941 43.96823245 -12 56 C-12.33 56 -12.66 56 -13 56 C-13.67811111 35.00724476 -11.27129321 19.47422532 -1 1 C-0.67 0.67 -0.34 0.34 0 0 Z " fill="#7141A3" transform="translate(25,55)"/>
<path d="M0 0 C2.31 0.33 4.62 0.66 7 1 C6.47892566 4.99490331 5.81355127 8.87958897 4.9375 12.8125 C3.17354111 21.57924305 4.00977278 29.35631242 6 38 C6.3378124 39.66576459 6.67234522 41.33220768 7 43 C4.43535674 39.99390175 3.50609547 37.69660576 2.875 33.8125 C2.55705645 30.60755169 2.55705645 30.60755169 1 28 C0.87341778 25.34177343 0.81479786 22.72112576 0.8125 20.0625 C0.79413086 18.9497168 0.79413086 18.9497168 0.77539062 17.81445312 C0.77011522 15.87486371 0.87811098 13.9357629 1 12 C1.66 11.34 2.32 10.68 3 10 C3.45811675 8.02764667 3.45811675 8.02764667 3.625 5.875 C3.74875 4.59625 3.8725 3.3175 4 2 C2.68 1.67 1.36 1.34 0 1 C0 0.67 0 0.34 0 0 Z " fill="#703CA4" transform="translate(104,22)"/>
<path d="M0 0 C1.64935547 0.01353516 1.64935547 0.01353516 3.33203125 0.02734375 C6.01325758 0.05065876 8.69400607 0.0833796 11.375 0.125 C11.375 0.455 11.375 0.785 11.375 1.125 C10.71491943 1.14481934 10.05483887 1.16463867 9.37475586 1.18505859 C6.35363636 1.28093352 3.33314992 1.39035753 0.3125 1.5 C-0.72583984 1.5309375 -1.76417969 1.561875 -2.83398438 1.59375 C-8.42643408 1.8067957 -13.27684124 2.33560356 -18.625 4.125 C-20.62369684 4.58898319 -22.62365662 5.04756865 -24.625 5.5 C-29.63992899 6.73809968 -33.29288534 8.35244662 -37.625 11.125 C-40.9375 12.9375 -40.9375 12.9375 -43.625 14.125 C-44.285 13.795 -44.945 13.465 -45.625 13.125 C-31.2139319 3.65858732 -17.10508584 -0.27018969 0 0 Z " fill="#7644A7" transform="translate(91.625,20.875)"/>
<path d="M0 0 C2 1.8125 2 1.8125 4 4 C4 4.99 4 5.98 4 7 C3.01 7 2.02 7 1 7 C1 21.85 1 36.7 1 52 C0.67 52 0.34 52 0 52 C-0.33 36.82 -0.66 21.64 -1 6 C-0.34 5.67 0.32 5.34 1 5 C0.67 3.35 0.34 1.7 0 0 Z " fill="#714696" transform="translate(114,70)"/>
<path d="M0 0 C0.95648438 0.16242188 1.91296875 0.32484375 2.8984375 0.4921875 C7.47584454 1.14412821 12.00890859 1.14663793 16.625 1.125 C17.45773438 1.12886719 18.29046875 1.13273437 19.1484375 1.13671875 C23.26138971 1.13016946 26.96640634 0.87686819 31 0 C32 1 32 1 32.0625 4.5625 C32.041875 5.696875 32.02125 6.83125 32 8 C31.34 6.68 30.68 5.36 30 4 C27.69 4.33 25.38 4.66 23 5 C23 4.67 23 4.34 23 4 C15.74 4 8.48 4 1 4 C0.67 2.68 0.34 1.36 0 0 Z " fill="#7245A0" transform="translate(137,88)"/>
<path d="M0 0 C2.25245881 2.68841859 3.88213958 4.64641875 5 8 C5.66 8.33 6.32 8.66 7 9 C6.48168678 12.83551785 5.74372987 14.36601932 3 17 C2.690625 17.86625 2.38125 18.7325 2.0625 19.625 C1.711875 20.40875 1.36125 21.1925 1 22 C-0.9375 22.625 -0.9375 22.625 -3 23 C-4.73026102 24.47890069 -4.73026102 24.47890069 -6 26 C-6.66 25.67 -7.32 25.34 -8 25 C-3.71 20.71 0.58 16.42 5 12 C3.5459375 10.1128125 3.5459375 10.1128125 2.0625 8.1875 C0.14240773 5.69546535 -0.99503148 4.01490557 -2 1 C-1.34 0.67 -0.68 0.34 0 0 Z " fill="#6E3BA0" transform="translate(28,143)"/>
<path d="M0 0 C3.68851835 0.99689685 4.80574807 1.68919691 6.875 5 C7.24625 5.99 7.6175 6.98 8 8 C7.67 8.66 7.34 9.32 7 10 C4.24616077 8.62308038 3.48516899 6.63279958 2 4 C0.35 4.33 -1.3 4.66 -3 5 C-3 6.65 -3 8.3 -3 10 C-3.66 10 -4.32 10 -5 10 C-5 10.99 -5 11.98 -5 13 C-5.66 13 -6.32 13 -7 13 C-4.29384966 3.40546697 -4.29384966 3.40546697 0 0 Z " fill="#703EA2" transform="translate(152,12)"/>
<path d="M0 0 C0.33 0.66 0.66 1.32 1 2 C1.66 2.309375 2.32 2.61875 3 2.9375 C5 4 5 4 6 7 C6.03874921 8.66621616 6.0450286 10.33394172 6 12 C6.66 12.33 7.32 12.66 8 13 C8 14.98 8 16.96 8 19 C4.99711313 16.45503136 3.79704375 13.66909427 2.3125 10.0625 C1.87550781 9.02222656 1.43851563 7.98195313 0.98828125 6.91015625 C0 4 0 4 0 0 Z " fill="#763AB1" transform="translate(15,120)"/>
<path d="M0 0 C2.91517292 1.07401108 4.77810176 1.77810176 7 4 C7.02734375 6.87890625 7.02734375 6.87890625 6 10 C3.12890625 12.15234375 3.12890625 12.15234375 -0.4375 13.9375 C-1.03626953 14.25267578 -1.63503906 14.56785156 -2.25195312 14.89257812 C-3.7961989 15.67594132 -5.39618554 16.34721206 -7 17 C-7.66 16.67 -8.32 16.34 -9 16 C-8.67 15.01 -8.34 14.02 -8 13 C-5.20511236 11.83693758 -2.36902112 11.02351015 0.53125 10.16015625 C3.14441002 9.25833695 3.14441002 9.25833695 3.90625 6.99609375 C4.16642824 4.92562046 4.16642824 4.92562046 3 3 C2.01 2.67 1.02 2.34 0 2 C0 1.34 0 0.68 0 0 Z " fill="#703E9E" transform="translate(178,39)"/>
<path d="M0 0 C0.66 0.33 1.32 0.66 2 1 C1.01 2.485 1.01 2.485 0 4 C-0.66 4 -1.32 4 -2 4 C-1.36078035 6.47627099 -1.36078035 6.47627099 0 9 C2.52372901 10.36078035 2.52372901 10.36078035 5 11 C5 11.66 5 12.32 5 13 C5.99 13.33 6.98 13.66 8 14 C7.01 14.495 7.01 14.495 6 15 C2.39419899 13.79406655 -0.87954547 12.17170473 -4 10 C-5.125 6.6875 -5.125 6.6875 -5 4 C-3.35 2.68 -1.7 1.36 0 0 Z " fill="#6C3D9F" transform="translate(126,39)"/>
<path d="M0 0 C0.33 0 0.66 0 1 0 C0.59200675 8.02386726 -1.91036813 14.62364642 -5 22 C-5.33 22 -5.66 22 -6 22 C-6.05422947 20.5629191 -6.09289723 19.12524538 -6.125 17.6875 C-6.14820313 16.88699219 -6.17140625 16.08648437 -6.1953125 15.26171875 C-6 13 -6 13 -4 10 C-3.34 10 -2.68 10 -2 10 C-1.855625 8.72125 -1.71125 7.4425 -1.5625 6.125 C-1.29357254 3.74307106 -1.07773654 2.15547309 0 0 Z " fill="#7141A1" transform="translate(167,112)"/>
<path d="M0 0 C2.11124481 2.11124481 3.86082332 4.06155848 5.6875 6.375 C8.91975808 10.20974448 12.63759012 12.59735294 17 15 C16.01 15.33 15.02 15.66 14 16 C12.09765625 14.8203125 12.09765625 14.8203125 10.0625 13.125 C7.11803155 10.68545967 5.87560823 9.96890206 2 9 C1.34 6.03 0.68 3.06 0 0 Z " fill="#743EA9" transform="translate(160,23)"/>
<path d="M0 0 C0.33 0.66 0.66 1.32 1 2 C-0.09655288 3.31886772 -1.20253423 4.62990057 -2.3125 5.9375 C-2.92738281 6.66839844 -3.54226562 7.39929687 -4.17578125 8.15234375 C-6 10 -6 10 -9 11 C-9.33 11.99 -9.66 12.98 -10 14 C-11.65 14 -13.3 14 -15 14 C-14.34 13.484375 -13.68 12.96875 -13 12.4375 C-10.57444092 10.46673325 -8.18197288 8.47464244 -5.8125 6.4375 C-4.80123047 5.56931641 -4.80123047 5.56931641 -3.76953125 4.68359375 C-1.79044936 2.92449646 -1.79044936 2.92449646 0 0 Z " fill="#7540A3" transform="translate(144,25)"/>
<path d="M0 0 C2 1.8125 2 1.8125 4 4 C4 4.99 4 5.98 4 7 C3.01 7 2.02 7 1 7 C0.67 10.63 0.34 14.26 0 18 C-0.33 18 -0.66 18 -1 18 C-1 14.04 -1 10.08 -1 6 C-0.34 5.67 0.32 5.34 1 5 C0.67 3.35 0.34 1.7 0 0 Z " fill="#7040A4" transform="translate(114,70)"/>
<path d="M0 0 C0.33 0.66 0.66 1.32 1 2 C1.99 2.33 2.98 2.66 4 3 C4.6875 5.0625 4.6875 5.0625 5 7 C3.02 7 1.04 7 -1 7 C-1 4.37886292 -0.68707555 2.49064888 0 0 Z " fill="#7636AD" transform="translate(109,63)"/>
<path d="M0 0 C0.66 0 1.32 0 2 0 C2.433125 0.9590625 2.433125 0.9590625 2.875 1.9375 C3.82823451 4.15206079 3.82823451 4.15206079 6 5 C6 6.98 6 8.96 6 11 C3.52140092 8.7991151 2.38789634 6.93627031 1.3125 3.8125 C1.06113281 3.09707031 0.80976563 2.38164062 0.55078125 1.64453125 C0.36902344 1.10183594 0.18726562 0.55914062 0 0 Z " fill="#7141A4" transform="translate(17,128)"/>
<path d="M0 0 C0.66 0.33 1.32 0.66 2 1 C2 3.31 2 5.62 2 8 C1.34 6.68 0.68 5.36 0 4 C-2.31 4.33 -4.62 4.66 -7 5 C-4.64046906 2.64046906 -3.22104383 2.50858587 0 2 C0 1.34 0 0.68 0 0 Z " fill="#6B37B1" transform="translate(167,88)"/>
<path d="M0 0 C0.66 0.33 1.32 0.66 2 1 C0.88424427 4.34726719 0.48655378 4.62079748 -2.4375 6.25 C-4.2009375 7.11625 -4.2009375 7.11625 -6 8 C-6.66 7.67 -7.32 7.34 -8 7 C-5.36 4.69 -2.72 2.38 0 0 Z " fill="#703EA6" transform="translate(44,35)"/>
<path d="M0 0 C0.33 0 0.66 0 1 0 C1.36923077 7.38461538 1.36923077 7.38461538 -0.5 10.5 C-0.995 10.995 -1.49 11.49 -2 12 C-2.05422947 10.5629191 -2.09289723 9.12524538 -2.125 7.6875 C-2.14820313 6.88699219 -2.17140625 6.08648437 -2.1953125 5.26171875 C-2 3 -2 3 0 0 Z " fill="#7536AF" transform="translate(163,122)"/>
<path d="M0 0 C0.99 0.33 1.98 0.66 3 1 C2.75 2.875 2.75 2.875 2 5 C-0.0625 6.25 -0.0625 6.25 -2 7 C-1.67 5.68 -1.34 4.36 -1 3 C-0.34 3 0.32 3 1 3 C0.67 2.01 0.34 1.02 0 0 Z " fill="#7439B0" transform="translate(148,147)"/>
<path d="M0 0 C2.0625 2.3125 2.0625 2.3125 4 5 C3.67 5.99 3.34 6.98 3 8 C1.29115995 6.37660195 -0.37446717 4.70680947 -2 3 C-2 2.34 -2 1.68 -2 1 C-1.34 0.67 -0.68 0.34 0 0 Z " fill="#753FA9" transform="translate(28,143)"/>
<path d="M0 0 C0.33 0.66 0.66 1.32 1 2 C2.32 2 3.64 2 5 2 C5.66 3.98 6.32 5.96 7 8 C4.36 6.02 1.72 4.04 -1 2 C-0.67 1.34 -0.34 0.68 0 0 Z " fill="#7039A2" transform="translate(135,53)"/>
<path d="M0 0 C2.31 0.33 4.62 0.66 7 1 C7 1.66 7 2.32 7 3 C5.02 3.33 3.04 3.66 1 4 C0.67 2.68 0.34 1.36 0 0 Z " fill="#7738A8" transform="translate(137,88)"/>
<path d="M0 0 C0.66 0 1.32 0 2 0 C1.125 3.875 1.125 3.875 0 5 C-1.66617115 5.04063832 -3.33388095 5.042721 -5 5 C-4.67 4.34 -4.34 3.68 -4 3 C-3.34 3 -2.68 3 -2 3 C-1.34 2.01 -0.68 1.02 0 0 Z " fill="#722FB5" transform="translate(155,70)"/>
</svg>
