<?xml version="1.0" encoding="UTF-8"?>
<svg version="1.1" xmlns="http://www.w3.org/2000/svg" width="512" height="512">
<path d="M0 0 C2.97261893 0.01073764 5.94463542 0.00003636 8.91723633 -0.01269531 C39.68754453 -0.03546284 39.68754453 -0.03546284 49.41137695 5.26074219 C50.70143468 7.85227407 50.47045701 9.06479827 49.6340332 11.83886719 C49.25118164 12.72058594 48.86833008 13.60230469 48.47387695 14.51074219 C48.09360352 15.40277344 47.71333008 16.29480469 47.3215332 17.21386719 C47.02118164 17.88933594 46.72083008 18.56480469 46.41137695 19.26074219 C45.75137695 19.26074219 45.09137695 19.26074219 44.41137695 19.26074219 C44.35079102 20.04320313 44.29020508 20.82566406 44.2277832 21.63183594 C44.14399414 22.64375 44.06020508 23.65566406 43.97387695 24.69824219 C43.85206055 26.21224609 43.85206055 26.21224609 43.7277832 27.75683594 C43.41137695 30.26074219 43.41137695 30.26074219 42.41137695 31.26074219 C41.39956621 36.6918439 41.27889431 41.96312787 41.3137207 47.47558594 C41.31513565 48.33132706 41.3165506 49.18706818 41.31800842 50.06874084 C41.32356705 52.7786115 41.33611171 55.48839687 41.34887695 58.19824219 C41.35389731 60.0452462 41.35845927 61.89225151 41.36254883 63.73925781 C41.3735229 68.24645169 41.39075866 72.75358252 41.41137695 77.26074219 C42.07137695 77.26074219 42.73137695 77.26074219 43.41137695 77.26074219 C43.52094727 77.97359375 43.63051758 78.68644531 43.7434082 79.42089844 C44.69502778 85.16929959 45.99085949 89.97961317 48.41137695 95.26074219 C48.41137695 96.25074219 48.41137695 97.24074219 48.41137695 98.26074219 C49.07137695 98.26074219 49.73137695 98.26074219 50.41137695 98.26074219 C50.74137695 100.24074219 51.07137695 102.22074219 51.41137695 104.26074219 C52.07137695 104.26074219 52.73137695 104.26074219 53.41137695 104.26074219 C55.25965129 107.87327839 56.9618724 111.46973029 58.41137695 115.26074219 C59.07137695 115.26074219 59.73137695 115.26074219 60.41137695 115.26074219 C60.74137695 116.25074219 61.07137695 117.24074219 61.41137695 118.26074219 C62.11262695 118.90011719 62.81387695 119.53949219 63.53637695 120.19824219 C64.46450195 121.21917969 64.46450195 121.21917969 65.41137695 122.26074219 C65.16137695 124.51074219 65.16137695 124.51074219 64.41137695 126.26074219 C62.10137695 126.26074219 59.79137695 126.26074219 57.41137695 126.26074219 C57.41137695 160.58074219 57.41137695 194.90074219 57.41137695 230.26074219 C68.30137695 230.26074219 79.19137695 230.26074219 90.41137695 230.26074219 C90.41137695 202.54074219 90.41137695 174.82074219 90.41137695 146.26074219 C92.72137695 146.26074219 95.03137695 146.26074219 97.41137695 146.26074219 C97.41137695 146.92074219 97.41137695 147.58074219 97.41137695 148.26074219 C103.02991777 150.21162442 108.62251471 151.89246566 114.41137695 153.26074219 C114.41137695 153.92074219 114.41137695 154.58074219 114.41137695 155.26074219 C115.19383789 155.32132813 115.97629883 155.38191406 116.7824707 155.44433594 C117.79438477 155.528125 118.80629883 155.61191406 119.84887695 155.69824219 C121.36288086 155.82005859 121.36288086 155.82005859 122.9074707 155.94433594 C125.41137695 156.26074219 125.41137695 156.26074219 126.41137695 157.26074219 C129.06852785 157.3743038 131.69865677 157.42492944 134.35668945 157.42871094 C135.56154495 157.43370354 135.56154495 157.43370354 136.79074097 157.438797 C138.49728827 157.4438725 140.20384555 157.44620513 141.91040039 157.44604492 C144.50464669 157.44821564 147.09845689 157.4663204 149.69262695 157.48535156 C151.35147967 157.48828863 153.0103344 157.49027133 154.66918945 157.49121094 C155.43925323 157.49839645 156.20931702 157.50558197 157.00271606 157.51298523 C161.85620225 157.49272451 165.79846165 156.77671866 170.41137695 155.26074219 C172.05330598 154.86900065 173.6987049 154.49116386 175.34887695 154.13574219 C176.12102539 153.96816406 176.89317383 153.80058594 177.6887207 153.62792969 C178.25719727 153.50675781 178.82567383 153.38558594 179.41137695 153.26074219 C181.50615078 156.40290293 181.66294956 157.13270652 181.67016602 160.71289062 C181.67647034 161.61102478 181.68277466 162.50915894 181.68927002 163.43450928 C181.68319733 164.88763519 181.68319733 164.88763519 181.67700195 166.37011719 C181.67891541 167.3702887 181.68082886 168.37046021 181.68280029 169.40093994 C181.68416202 171.51924897 181.68046646 173.63756635 181.67211914 175.75585938 C181.66146441 178.98424283 181.67199174 182.2120641 181.68481445 185.44042969 C181.68349198 187.50032674 181.68092776 189.56022345 181.67700195 191.62011719 C181.68105042 192.58077087 181.68509888 193.54142456 181.68927002 194.53118896 C181.6524289 199.85337648 181.10804583 204.21629199 179.41137695 209.26074219 C179.15549179 210.89985564 178.93886406 212.54629854 178.78637695 214.19824219 C178.71161133 214.97039062 178.6368457 215.74253906 178.55981445 216.53808594 C178.51083008 217.1065625 178.4618457 217.67503906 178.41137695 218.26074219 C177.75137695 218.26074219 177.09137695 218.26074219 176.41137695 218.26074219 C176.3855957 218.83179688 176.35981445 219.40285156 176.33325195 219.99121094 C175.81040991 227.46547556 173.79663541 234.1826264 171.41137695 241.26074219 C170.75137695 241.26074219 170.09137695 241.26074219 169.41137695 241.26074219 C169.08137695 243.57074219 168.75137695 245.88074219 168.41137695 248.26074219 C167.75137695 248.26074219 167.09137695 248.26074219 166.41137695 248.26074219 C166.24702148 249.11345703 166.24702148 249.11345703 166.0793457 249.98339844 C165.0319953 255.08390977 163.61865942 259.54518419 161.41137695 264.26074219 C160.75137695 264.26074219 160.09137695 264.26074219 159.41137695 264.26074219 C159.08137695 265.58074219 158.75137695 266.90074219 158.41137695 268.26074219 C157.75137695 268.26074219 157.09137695 268.26074219 156.41137695 268.26074219 C156.26700195 269.04449219 156.12262695 269.82824219 155.97387695 270.63574219 C155.41137695 273.26074219 155.41137695 273.26074219 154.41137695 275.26074219 C153.75137695 275.26074219 153.09137695 275.26074219 152.41137695 275.26074219 C152.34950195 275.98261719 152.28762695 276.70449219 152.22387695 277.44824219 C151.14403468 281.18615775 149.22583082 282.56865588 146.41137695 285.26074219 C145.26575349 286.68186081 144.14233907 288.12104418 143.03637695 289.57324219 C140.17325427 293.3201984 137.17913446 296.8907165 134.03637695 300.40527344 C132.54860016 302.10405703 131.16885384 303.85148296 129.78637695 305.63574219 C127.38017763 308.29522565 125.81737033 309.28760122 122.41137695 310.26074219 C122.41137695 310.92074219 122.41137695 311.58074219 122.41137695 312.26074219 C120.80200195 313.88183594 120.80200195 313.88183594 118.66137695 315.69824219 C117.9652832 316.29507812 117.26918945 316.89191406 116.55200195 317.50683594 C115.8455957 318.085625 115.13918945 318.66441406 114.41137695 319.26074219 C113.7255957 319.82921875 113.03981445 320.39769531 112.33325195 320.98339844 C110.41137695 322.26074219 110.41137695 322.26074219 107.41137695 322.26074219 C107.41137695 322.92074219 107.41137695 323.58074219 107.41137695 324.26074219 C105.26989089 326.82091624 102.81064532 328.33914824 99.91137695 329.94824219 C99.13793945 330.38523437 98.36450195 330.82222656 97.56762695 331.27246094 C95.41137695 332.26074219 95.41137695 332.26074219 92.41137695 332.26074219 C92.41137695 332.92074219 92.41137695 333.58074219 92.41137695 334.26074219 C91.09137695 334.59074219 89.77137695 334.92074219 88.41137695 335.26074219 C88.41137695 335.92074219 88.41137695 336.58074219 88.41137695 337.26074219 C87.3749707 337.67066406 86.33856445 338.08058594 85.27075195 338.50292969 C83.90092356 339.04710809 82.53113393 339.59138405 81.16137695 340.13574219 C80.47946289 340.40515625 79.79754883 340.67457031 79.0949707 340.95214844 C76.39532808 342.02676346 73.74128162 343.08425473 71.17700195 344.45605469 C69.41137695 345.26074219 69.41137695 345.26074219 65.41137695 345.26074219 C65.41137695 345.92074219 65.41137695 346.58074219 65.41137695 347.26074219 C64.61473633 347.45410156 63.8180957 347.64746094 62.99731445 347.84667969 C56.76168965 349.37903517 50.70891642 351.06761537 44.66918945 353.25292969 C41.32104401 354.28868691 38.13062384 354.84761963 34.66137695 355.32324219 C30.39168086 355.82368963 30.39168086 355.82368963 26.41137695 357.26074219 C23.38270825 357.51001383 20.37935393 357.68776635 17.34448242 357.81494141 C16.34322264 357.85705183 15.34196285 357.89916225 14.31036186 357.94254875 C-1.99336945 358.54063857 -18.31714872 358.40630384 -34.62920141 358.39506769 C-39.52535397 358.39250361 -44.42150482 358.39489192 -49.31765747 358.39645386 C-57.50889428 358.3982601 -65.700122 358.39590619 -73.89135742 358.39111328 C-83.36611774 358.38563347 -92.84085666 358.38746621 -102.31561649 358.39293969 C-110.48078593 358.39746747 -118.64594891 358.39812422 -126.8111192 358.39550102 C-131.67615494 358.39394152 -136.54118057 358.39373638 -141.40621567 358.39703751 C-145.95855666 358.39991266 -150.51086968 358.39794723 -155.06320763 358.39214325 C-156.73664109 358.39081545 -158.41007689 358.39121011 -160.08350945 358.39340591 C-162.35688331 358.39611561 -164.63016597 358.39273906 -166.90353394 358.38772583 C-168.8152303 358.38716029 -168.8152303 358.38716029 -170.7655468 358.38658333 C-173.58862305 358.26074219 -173.58862305 358.26074219 -174.58862305 357.26074219 C-175.02612305 355.01074219 -175.02612305 355.01074219 -174.58862305 352.26074219 C-171.83862305 349.76074219 -171.83862305 349.76074219 -170.16674805 348.51074219 C-168.37995126 347.1914406 -168.37995126 347.1914406 -166.58862305 344.76074219 C-164.22819108 341.81020222 -161.48710568 339.67614438 -158.58862305 337.26074219 C-157.59862305 336.02324219 -157.59862305 336.02324219 -156.58862305 334.76074219 C-154.58862305 332.26074219 -154.58862305 332.26074219 -151.65112305 329.82324219 C-148.5264831 327.20874754 -146.18398622 324.38848755 -143.58862305 321.26074219 C-141.92195638 319.92740885 -140.25528971 318.59407552 -138.58862305 317.26074219 C-137.35112305 315.77574219 -137.35112305 315.77574219 -136.08862305 314.26074219 C-133.7703343 311.4787957 -131.43110887 309.47156449 -128.58862305 307.26074219 C-128.25862305 306.60074219 -127.92862305 305.94074219 -127.58862305 305.26074219 C-126.92862305 305.26074219 -126.26862305 305.26074219 -125.58862305 305.26074219 C-126.08362305 304.64199219 -126.57862305 304.02324219 -127.08862305 303.38574219 C-128.58862305 301.26074219 -128.58862305 301.26074219 -128.58862305 299.26074219 C-129.57862305 298.93074219 -130.56862305 298.60074219 -131.58862305 298.26074219 C-131.58862305 297.27074219 -131.58862305 296.28074219 -131.58862305 295.26074219 C-132.90862305 294.60074219 -134.22862305 293.94074219 -135.58862305 293.26074219 C-135.58862305 292.60074219 -135.58862305 291.94074219 -135.58862305 291.26074219 C-136.57862305 290.93074219 -137.56862305 290.60074219 -138.58862305 290.26074219 C-140.4128418 288.04589844 -140.4128418 288.04589844 -142.27612305 285.32324219 C-142.89874023 284.42734375 -143.52135742 283.53144531 -144.1628418 282.60839844 C-145.58862305 280.26074219 -145.58862305 280.26074219 -145.58862305 278.26074219 C-146.24862305 278.26074219 -146.90862305 278.26074219 -147.58862305 278.26074219 C-147.91862305 276.61074219 -148.24862305 274.96074219 -148.58862305 273.26074219 C-149.24862305 273.26074219 -149.90862305 273.26074219 -150.58862305 273.26074219 C-151.04237305 272.33261719 -151.49612305 271.40449219 -151.96362305 270.44824219 C-153.53078635 267.2215283 -153.53078635 267.2215283 -155.58862305 264.26074219 C-155.58862305 263.27074219 -155.58862305 262.28074219 -155.58862305 261.26074219 C-156.24862305 261.26074219 -156.90862305 261.26074219 -157.58862305 261.26074219 C-164.71691252 245.62916324 -164.71691252 245.62916324 -165.58862305 237.26074219 C-166.24862305 237.26074219 -166.90862305 237.26074219 -167.58862305 237.26074219 C-170.0524025 229.2833592 -172.04630053 221.60053761 -173.09643555 213.29589844 C-173.51951655 210.20568896 -173.51951655 210.20568896 -174.6003418 207.12011719 C-175.93901098 201.89242882 -176.10348136 196.82663292 -176.27612305 191.44824219 C-176.33582275 189.75779785 -176.33582275 189.75779785 -176.39672852 188.03320312 C-177.25522672 158.36777718 -177.25522672 158.36777718 -174.58862305 145.26074219 C-173.92862305 145.26074219 -173.26862305 145.26074219 -172.58862305 145.26074219 C-172.67112305 144.25011719 -172.75362305 143.23949219 -172.83862305 142.19824219 C-172.88019529 134.49351911 -170.00779132 126.51824702 -167.58862305 119.26074219 C-166.92862305 119.26074219 -166.26862305 119.26074219 -165.58862305 119.26074219 C-165.25862305 116.62074219 -164.92862305 113.98074219 -164.58862305 111.26074219 C-163.92862305 111.26074219 -163.26862305 111.26074219 -162.58862305 111.26074219 C-162.50612305 110.29136719 -162.42362305 109.32199219 -162.33862305 108.32324219 C-161.68871055 103.58955117 -159.66556981 99.52089811 -157.58862305 95.26074219 C-156.92862305 95.26074219 -156.26862305 95.26074219 -155.58862305 95.26074219 C-155.50612305 94.55949219 -155.42362305 93.85824219 -155.33862305 93.13574219 C-154.40853299 89.57039699 -152.82175936 87.17058647 -150.58862305 84.26074219 C-149.92862305 84.26074219 -149.26862305 84.26074219 -148.58862305 84.26074219 C-148.25862305 82.28074219 -147.92862305 80.30074219 -147.58862305 78.26074219 C-146.92862305 78.26074219 -146.26862305 78.26074219 -145.58862305 78.26074219 C-145.32049805 77.70386719 -145.05237305 77.14699219 -144.77612305 76.57324219 C-143.47962809 74.04848885 -142.16385982 71.62359734 -140.58862305 69.26074219 C-139.92862305 69.26074219 -139.26862305 69.26074219 -138.58862305 69.26074219 C-138.50612305 68.68324219 -138.42362305 68.10574219 -138.33862305 67.51074219 C-137.37064518 64.60680859 -135.90168021 63.22333614 -133.58862305 61.26074219 C-132.92862305 61.26074219 -132.26862305 61.26074219 -131.58862305 61.26074219 C-131.58862305 60.27074219 -131.58862305 59.28074219 -131.58862305 58.26074219 C-129.71362305 56.07324219 -129.71362305 56.07324219 -127.58862305 54.26074219 C-126.92862305 54.26074219 -126.26862305 54.26074219 -125.58862305 54.26074219 C-125.36174805 53.68324219 -125.13487305 53.10574219 -124.90112305 52.51074219 C-123.25946197 49.69646606 -121.15303252 48.23336486 -118.58862305 46.26074219 C-118.09362305 45.27074219 -118.09362305 45.27074219 -117.58862305 44.26074219 C-116.59862305 44.26074219 -115.60862305 44.26074219 -114.58862305 44.26074219 C-114.25862305 43.27074219 -113.92862305 42.28074219 -113.58862305 41.26074219 C-112.92862305 41.26074219 -112.26862305 41.26074219 -111.58862305 41.26074219 C-111.25862305 40.27074219 -110.92862305 39.28074219 -110.58862305 38.26074219 C-108.76831055 36.83105469 -108.76831055 36.83105469 -106.46362305 35.38574219 C-103.46290586 33.47445736 -100.55674231 31.52415668 -97.71362305 29.38574219 C-94.58862305 27.26074219 -94.58862305 27.26074219 -91.58862305 27.26074219 C-91.09362305 25.77574219 -91.09362305 25.77574219 -90.58862305 24.26074219 C-89.59862305 24.26074219 -88.60862305 24.26074219 -87.58862305 24.26074219 C-87.58862305 23.60074219 -87.58862305 22.94074219 -87.58862305 22.26074219 C-84.50052609 20.49611536 -83.35550169 20.26074219 -79.58862305 20.26074219 C-79.58862305 19.60074219 -79.58862305 18.94074219 -79.58862305 18.26074219 C-77.60862305 17.93074219 -75.62862305 17.60074219 -73.58862305 17.26074219 C-73.58862305 16.60074219 -73.58862305 15.94074219 -73.58862305 15.26074219 C-70.61862305 14.76574219 -70.61862305 14.76574219 -67.58862305 14.26074219 C-67.58862305 13.60074219 -67.58862305 12.94074219 -67.58862305 12.26074219 C-63.71178217 11.06786807 -60.67240381 10.26074219 -56.58862305 10.26074219 C-56.58862305 9.60074219 -56.58862305 8.94074219 -56.58862305 8.26074219 C-52.13362305 7.76574219 -52.13362305 7.76574219 -47.58862305 7.26074219 C-47.58862305 6.60074219 -47.58862305 5.94074219 -47.58862305 5.26074219 C-45.73696827 4.79236408 -43.88205291 4.33688278 -42.02612305 3.88574219 C-40.47731445 3.50289063 -40.47731445 3.50289063 -38.8972168 3.11230469 C-25.9165642 0.39432231 -13.20895002 -0.05669545 0 0 Z M-12.58862305 72.26074219 C-14.3831128 74.05523194 -13.71386426 76.49203827 -13.72236645 78.8815155 C-13.72013573 79.69501968 -13.71790501 80.50852386 -13.71560669 81.34667969 C-13.71716668 82.20437454 -13.71872667 83.0620694 -13.72033393 83.945755 C-13.72434769 86.84243447 -13.72115285 89.73906226 -13.71801758 92.63574219 C-13.71937145 94.70320669 -13.72115131 96.77067096 -13.72332764 98.83813477 C-13.72790362 104.47020046 -13.72611174 110.10224793 -13.72294855 115.73431396 C-13.72042579 121.61421764 -13.72276225 127.4941197 -13.72433472 133.37402344 C-13.72615666 143.25032839 -13.72374945 153.12662587 -13.71899414 163.00292969 C-13.71355147 174.43923033 -13.71531411 185.87551315 -13.72082055 197.31181335 C-13.72535097 207.11134494 -13.72600257 216.91087115 -13.72338188 226.71040344 C-13.72181871 232.5717498 -13.72162641 238.43308777 -13.72491837 244.29443359 C-13.72779606 249.80350585 -13.72582327 255.31255501 -13.72002411 260.82162476 C-13.71869596 262.84980226 -13.71909154 264.87798169 -13.72128677 266.90615845 C-13.72399614 269.66240057 -13.72061978 272.41856743 -13.71560669 275.17480469 C-13.71783741 275.98830887 -13.72006813 276.80181305 -13.72236645 277.63996887 C-14.04848853 281.24784927 -14.04848853 281.24784927 -12.58862305 284.26074219 C-2.02862305 284.26074219 8.53137695 284.26074219 19.41137695 284.26074219 C19.41137695 214.63074219 19.41137695 145.00074219 19.41137695 73.26074219 C8.85137695 72.93074219 -1.70862305 72.60074219 -12.58862305 72.26074219 Z M-84.58862305 126.26074219 C-84.58862305 160.58074219 -84.58862305 194.90074219 -84.58862305 230.26074219 C-74.02862305 230.26074219 -63.46862305 230.26074219 -52.58862305 230.26074219 C-52.58862305 195.94074219 -52.58862305 161.62074219 -52.58862305 126.26074219 C-63.14862305 126.26074219 -73.70862305 126.26074219 -84.58862305 126.26074219 Z " fill="#FFFFFF" transform="translate(240.588623046875,84.7392578125)"/>
<path d="M0 0 C2.97 0 5.94 0 9 0 C9 0.66 9 1.32 9 2 C9.60457031 2.23203125 10.20914063 2.4640625 10.83203125 2.703125 C14.87536335 5.12183898 16.27859477 9.76767285 18 14 C18.8125 17.625 18.8125 17.625 19 20 C19.66 20 20.32 20 21 20 C21.495 22.97 21.495 22.97 22 26 C22.66 26 23.32 26 24 26 C25.4606285 28.64738916 26 29.89448334 26 33 C26.66 33 27.32 33 28 33 C28.495 34.98 28.495 34.98 29 37 C29.66 37 30.32 37 31 37 C32.22407497 38.45565672 33.44375301 39.9156288 34.625 41.40625 C36.11818763 43.23536089 36.11818763 43.23536089 38.8125 45.25 C39.8953125 46.11625 39.8953125 46.11625 41 47 C41 47.66 41 48.32 41 49 C41.639375 49.226875 42.27875 49.45375 42.9375 49.6875 C45.36073035 50.72602729 47.47892406 51.81527271 49.75 53.125 C56.93430783 57.20059541 64.50906657 60.53404572 72 64 C72 64.66 72 65.32 72 66 C72.99 66 73.98 66 75 66 C76.30459914 68.60919828 76.1326594 70.58942615 76.125 73.5 C76.12757813 74.4796875 76.13015625 75.459375 76.1328125 76.46875 C76 79 76 79 75 81 C74.34 81 73.68 81 73 81 C73 81.66 73 82.32 73 83 C70.09399739 84.25664978 68.20395416 85 65 85 C65 85.66 65 86.32 65 87 C63.58774074 87.67595315 62.16997095 88.34040059 60.75 89 C59.96109375 89.37125 59.1721875 89.7425 58.359375 90.125 C56 91 56 91 52 91 C52 91.66 52 92.32 52 93 C50.02 93.66 48.04 94.32 46 95 C46 95.66 46 96.32 46 97 C45.360625 97.103125 44.72125 97.20625 44.0625 97.3125 C43.381875 97.539375 42.70125 97.76625 42 98 C41.505 99.485 41.505 99.485 41 101 C39.34928604 102.02611949 37.68029994 103.02308143 36 104 C33.31979608 106.38240349 32.14462392 107.56612823 31 111 C29.5625 112.6875 29.5625 112.6875 28 114 C27.34 114 26.68 114 26 114 C25.773125 114.825 25.54625 115.65 25.3125 116.5 C23.96451501 120.09462665 22.25997692 122.909589 20.12109375 126.0703125 C18.9708126 128.05023894 18.44219499 129.76418261 18 132 C17.34 132 16.68 132 16 132 C15.87044922 132.90492188 15.87044922 132.90492188 15.73828125 133.828125 C15.04641138 137.76353163 14.47702598 140.40733136 11.9375 143.5625 C7.86501797 145.55541674 4.45080221 145.79017865 0 145 C-3 143.375 -3 143.375 -5 141 C-5.8125 137.75 -5.8125 137.75 -6 135 C-6.66 135 -7.32 135 -8 135 C-8.64910154 133.41800369 -9.29414694 131.83434276 -9.9375 130.25 C-10.47697266 128.92742187 -10.47697266 128.92742187 -11.02734375 127.578125 C-11.85356576 125.38813896 -12.49369943 123.28101729 -13 121 C-13.66 121 -14.32 121 -15 121 C-15.30292969 120.40832031 -15.60585938 119.81664062 -15.91796875 119.20703125 C-18.46595822 114.40113111 -20.9145177 110.67693407 -25 107 C-26.299375 105.6696875 -26.299375 105.6696875 -27.625 104.3125 C-29.97085755 101.88724324 -29.97085755 101.88724324 -33 100 C-33 99.34 -33 98.68 -33 98 C-34.32 97.67 -35.64 97.34 -37 97 C-37 96.34 -37 95.68 -37 95 C-38.98 94.34 -40.96 93.68 -43 93 C-43 92.34 -43 91.68 -43 91 C-43.845625 90.896875 -44.69125 90.79375 -45.5625 90.6875 C-49.41442701 89.9171146 -52.44075031 88.63725486 -56 87 C-56 86.34 -56 85.68 -56 85 C-57.0725 84.9175 -58.145 84.835 -59.25 84.75 C-63.35088558 83.92982288 -64.49838425 83.24283524 -67 80 C-68.97800822 76.93408725 -69.44258789 74.62922072 -69 71 C-67.6875 68.1875 -67.6875 68.1875 -66 66 C-65.01 66 -64.02 66 -63 66 C-62.67 65.01 -62.34 64.02 -62 63 C-59.8125 61.75390625 -59.8125 61.75390625 -57 60.5625 C-56.00484375 60.13066406 -55.0096875 59.69882813 -53.984375 59.25390625 C-52.16248891 58.48842793 -50.33977681 57.724907 -48.515625 56.96484375 C-44.73651137 55.3554626 -41.42855976 53.71039178 -38.125 51.25 C-35 49 -35 49 -32 49 C-32 48.34 -32 47.68 -32 47 C-30.125 44.875 -30.125 44.875 -28 43 C-27.34 43 -26.68 43 -26 43 C-25.67 42.01 -25.34 41.02 -25 40 C-23.5625 38.3125 -23.5625 38.3125 -22 37 C-21.34 37 -20.68 37 -20 37 C-19.9175 36.484375 -19.835 35.96875 -19.75 35.4375 C-18.67859775 31.95544268 -16.86476395 29.12799115 -15 26 C-14.34 26 -13.68 26 -13 26 C-12.67 24.02 -12.34 22.04 -12 20 C-11.34 20 -10.68 20 -10 20 C-9.34 16.7 -8.68 13.4 -8 10 C-7.34 10 -6.68 10 -6 10 C-5.67 8.02 -5.34 6.04 -5 4 C-4.34 4 -3.68 4 -3 4 C-3 3.34 -3 2.68 -3 2 C-2.01 2 -1.02 2 0 2 C0 1.34 0 0.68 0 0 Z " fill="#FFFFFF" transform="translate(381,66)"/>
</svg>
